<svg width="160" height="80" viewBox="0 0 160 80" xmlns="http://www.w3.org/2000/svg">
  <rect width="160" height="80" rx="12" fill="#001F3F" opacity="0.12" />
  <rect x="12" y="12" width="136" height="56" rx="10" fill="#001F3F" opacity="0.25" />
  <path d="M40 52V28h12c6 0 10 4 10 12s-4 12-10 12H40zm12-6c2.8 0 4-1.9 4-6s-1.2-6-4-6h-6v12h6zM78 28c8.8 0 15 5.2 15 12s-6.2 12-15 12-15-5.2-15-12 6.2-12 15-12zm0 18c4.6 0 8-2.3 8-6s-3.4-6-8-6-8 2.3-8 6 3.4 6 8 6zm33-18c5.6 0 9 3.4 9 9 0 5.7-3.4 9-9 9h-9v6h-7V28h16zm-1 6h-8v6h8c1.8 0 3-1.1 3-3s-1.2-3-3-3z" fill="#001F3F" opacity="0.35" />
  <text x="80" y="46" text-anchor="middle" font-family="Montserrat, Arial" font-size="18" font-weight="600" fill="#D4AF37">Client Logo</text>
</svg>
