<svg xmlns="http://www.w3.org/2000/svg" viewBox="0 0 1080 1920" width="1080" height="1920">
  <defs>
    <linearGradient id="amber4" x1="0" y1="0" x2="1" y2="0">
      <stop offset="0%" stop-color="#E5A835"/>
      <stop offset="100%" stop-color="#9B6310"/>
    </linearGradient>
    <linearGradient id="bg4" x1="0" y1="0" x2="0" y2="1">
      <stop offset="0%" stop-color="#1A1A1B"/>
      <stop offset="100%" stop-color="#0A0A0B"/>
    </linearGradient>
    <symbol id="bm4" viewBox="-110 -110 220 220">
      <polygon points="0,-100 86.6,-50 86.6,50 0,100 -86.6,50 -86.6,-50" fill="#F8F5F0"/>
      <g fill="#1A1A1B">
        <rect x="-55" y="-50" width="110" height="22"/>
        <rect x="33" y="-28" width="22" height="20"/>
        <rect x="-55" y="-8" width="110" height="16"/>
        <rect x="-55" y="8" width="22" height="20"/>
        <rect x="-55" y="28" width="110" height="22"/>
      </g>
    </symbol>
  </defs>
  <rect width="1080" height="1920" fill="url(#bg4)"/>

  <!-- Top brand -->
  <g transform="translate(540, 160)">
    <use href="#bm4" width="60" height="60" x="-30" y="-30"/>
  </g>

  <!-- Eyebrow -->
  <g transform="translate(540, 290)">
    <rect x="-200" y="-25" width="400" height="50" rx="25" fill="none" stroke="#CA8114" stroke-width="1.5"/>
    <text text-anchor="middle" y="6" font-family="Montserrat, Arial, sans-serif" font-size="14" letter-spacing="5" fill="#CA8114" font-weight="700">NEW ON THEBREED.CO.ZA</text>
  </g>

  <!-- Headline -->
  <g font-family="Montserrat, Arial, sans-serif" text-anchor="middle">
    <text x="540" y="450" font-size="78" font-weight="800" fill="#FFFFFF" letter-spacing="-2">BUILD YOUR OWN</text>
    <text x="540" y="540" font-size="78" font-weight="800" fill="#FFFFFF" letter-spacing="-2">PACKAGE.</text>
    <text x="540" y="650" font-size="42" font-weight="700" fill="url(#amber4)">PAY FOR EXACTLY</text>
    <text x="540" y="705" font-size="42" font-weight="700" fill="url(#amber4)">WHAT YOU NEED.</text>
  </g>

  <!-- Mock UI panel -->
  <g transform="translate(140, 800)">
    <rect width="800" height="800" rx="24" fill="#0E0E0F" stroke="#CA8114" stroke-width="1" opacity="0.95"/>
    <rect x="20" y="20" width="760" height="60" rx="12" fill="#242426"/>
    <circle cx="50" cy="50" r="6" fill="#CA8114"/>
    <text x="78" y="56" font-family="Montserrat, Arial, sans-serif" font-size="18" font-weight="700" fill="#FFFFFF">Package Builder</text>
    <text x="760" y="56" text-anchor="end" font-family="Inter, Arial, sans-serif" font-size="14" fill="#CA8114" font-weight="600">Live</text>

    <g font-family="Inter, Arial, sans-serif">
      <g transform="translate(20, 110)"><rect width="760" height="80" rx="10" fill="#242426"/>
        <rect x="20" y="20" width="40" height="40" rx="8" fill="#CA8114"/>
        <text x="80" y="38" font-size="20" font-weight="600" fill="#FFFFFF">CIPC Company Registration</text>
        <text x="80" y="62" font-size="14" fill="#FFFFFF" opacity="0.6">Including founding statement</text>
        <text x="740" y="48" text-anchor="end" font-size="22" font-weight="700" fill="#CA8114">From R550</text>
      </g>
      <g transform="translate(20, 210)"><rect width="760" height="80" rx="10" fill="#242426"/>
        <rect x="20" y="20" width="40" height="40" rx="8" fill="#CA8114"/>
        <text x="80" y="38" font-size="20" font-weight="600" fill="#FFFFFF">Logo Design</text>
        <text x="80" y="62" font-size="14" fill="#FFFFFF" opacity="0.6">3 concepts · 3 revisions</text>
        <text x="740" y="48" text-anchor="end" font-size="22" font-weight="700" fill="#CA8114">From R1,500</text>
      </g>
      <g transform="translate(20, 310)"><rect width="760" height="80" rx="10" fill="#242426"/>
        <rect x="20" y="20" width="40" height="40" rx="8" fill="#CA8114"/>
        <text x="80" y="38" font-size="20" font-weight="600" fill="#FFFFFF">Website Development</text>
        <text x="80" y="62" font-size="14" fill="#FFFFFF" opacity="0.6">Mobile-ready · domain · hosting</text>
        <text x="740" y="48" text-anchor="end" font-size="22" font-weight="700" fill="#CA8114">From R5,000</text>
      </g>
      <g transform="translate(20, 410)"><rect width="760" height="80" rx="10" fill="#242426"/>
        <rect x="20" y="20" width="40" height="40" rx="8" fill="#0E0E0F" stroke="#CA8114" stroke-width="2"/>
        <text x="80" y="38" font-size="20" font-weight="600" fill="#FFFFFF" opacity="0.6">Social Media Management</text>
        <text x="80" y="62" font-size="14" fill="#FFFFFF" opacity="0.4">Monthly retainer</text>
        <text x="740" y="48" text-anchor="end" font-size="22" font-weight="700" fill="#FFFFFF" opacity="0.5">+ R3,500/mo</text>
      </g>

      <line x1="20" y1="540" x2="780" y2="540" stroke="#CA8114" stroke-width="0.5" opacity="0.4"/>
      <text x="40" y="600" font-family="Montserrat, Arial, sans-serif" font-size="22" font-weight="700" fill="#FFFFFF">YOUR TOTAL</text>
      <text x="760" y="615" text-anchor="end" font-family="Montserrat, Arial, sans-serif" font-size="48" font-weight="800" fill="url(#amber4)">From R7,050</text>

      <g transform="translate(20, 680)">
        <rect width="760" height="80" rx="14" fill="url(#amber4)"/>
        <text x="380" y="50" text-anchor="middle" font-family="Montserrat, Arial, sans-serif" font-size="20" font-weight="800" fill="#1A1A1B" letter-spacing="3">GET MY QUOTE  →</text>
      </g>
    </g>
  </g>

  <!-- Footer -->
  <g font-family="Inter, Arial, sans-serif" text-anchor="middle" fill="#FFFFFF">
    <text x="540" y="1700" font-size="32" font-weight="700" fill="#CA8114">thebreed.co.za/build-package</text>
    <text x="540" y="1755" font-size="20" opacity="0.7">No surprises. No hidden costs.</text>
    <text x="540" y="1830" font-size="18" opacity="0.5" letter-spacing="3">@breedindustries</text>
  </g>
</svg>
