<svg xmlns="http://www.w3.org/2000/svg" viewBox="0 0 2480 3508" width="2480" height="3508">
  <defs>
    <linearGradient id="bg9" x1="0" y1="0" x2="0" y2="1">
      <stop offset="0%" stop-color="#242426"/>
      <stop offset="50%" stop-color="#1A1A1B"/>
      <stop offset="100%" stop-color="#0A0A0B"/>
    </linearGradient>
    <linearGradient id="amber9" x1="0" y1="0" x2="1" y2="0">
      <stop offset="0%" stop-color="#E5A835"/>
      <stop offset="100%" stop-color="#9B6310"/>
    </linearGradient>
    <radialGradient id="aglow9" cx="50%" cy="40%" r="60%">
      <stop offset="0%" stop-color="#CA8114" stop-opacity="0.28"/>
      <stop offset="100%" stop-color="#CA8114" stop-opacity="0"/>
    </radialGradient>
    <pattern id="hg9" width="120" height="120" patternUnits="userSpaceOnUse">
      <path d="M 120 0 L 0 0 0 120" fill="none" stroke="#CA8114" stroke-width="1" opacity="0.06"/>
    </pattern>
    <symbol id="bm9" viewBox="-110 -110 220 220">
      <polygon points="0,-100 86.6,-50 86.6,50 0,100 -86.6,50 -86.6,-50" fill="#F8F5F0"/>
      <g fill="#1A1A1B">
        <rect x="-55" y="-50" width="110" height="22"/>
        <rect x="33" y="-28" width="22" height="20"/>
        <rect x="-55" y="-8" width="110" height="16"/>
        <rect x="-55" y="8" width="22" height="20"/>
        <rect x="-55" y="28" width="110" height="22"/>
      </g>
    </symbol>
  </defs>
  <rect width="2480" height="3508" fill="url(#bg9)"/>
  <rect width="2480" height="3508" fill="url(#hg9)"/>
  <ellipse cx="1240" cy="1400" rx="1500" ry="1100" fill="url(#aglow9)"/>

  <rect x="80" y="80" width="2320" height="3348" fill="none" stroke="#CA8114" stroke-width="3" opacity="0.5"/>
  <rect x="120" y="120" width="2240" height="3268" fill="none" stroke="#CA8114" stroke-width="1" opacity="0.3"/>

  <!-- Top brand lockup -->
  <g transform="translate(1240, 280)" font-family="Montserrat, Arial, sans-serif" text-anchor="middle">
    <use href="#bm9" width="120" height="120" x="-60" y="-100"/>
    <text y="60" font-size="34" letter-spacing="14" fill="#FFFFFF" font-weight="800">BREED INDUSTRIES</text>
    <text y="115" font-size="18" letter-spacing="8" fill="#CA8114" font-weight="700">PREMIUM GROWTH AGENCY · DURBAN · SOUTH AFRICA</text>
  </g>

  <!-- Hero -->
  <g transform="translate(1240, 750)" font-family="Montserrat, Arial, sans-serif" text-anchor="middle">
    <text font-size="170" font-weight="800" fill="#FFFFFF" letter-spacing="-6">REAL WORK.</text>
    <text y="190" font-size="170" font-weight="800" fill="#FFFFFF" letter-spacing="-6">REAL CLIENTS.</text>
    <text y="430" font-size="240" font-weight="800" fill="url(#amber9)" letter-spacing="-9">REAL IMPACT.</text>
  </g>

  <!-- Divider -->
  <line x1="1040" y1="1670" x2="1440" y2="1670" stroke="#CA8114" stroke-width="2"/>

  <!-- Stats row -->
  <g transform="translate(1240, 1820)" font-family="Montserrat, Arial, sans-serif" text-anchor="middle">
    <g transform="translate(-870, 0)">
      <text font-size="120" font-weight="800" fill="url(#amber9)">23+</text>
      <text y="60" font-size="22" font-weight="700" fill="#FFFFFF" opacity="0.7" letter-spacing="6">CLIENTS SERVED</text>
    </g>
    <g transform="translate(-290, 0)">
      <text font-size="120" font-weight="800" fill="url(#amber9)">5</text>
      <text y="60" font-size="22" font-weight="700" fill="#FFFFFF" opacity="0.7" letter-spacing="6">DIGITAL PRODUCTS</text>
    </g>
    <g transform="translate(290, 0)">
      <text font-size="120" font-weight="800" fill="url(#amber9)">8+</text>
      <text y="60" font-size="22" font-weight="700" fill="#FFFFFF" opacity="0.7" letter-spacing="6">BRAND IDENTITIES</text>
    </g>
    <g transform="translate(870, 0)">
      <text font-size="120" font-weight="800" fill="url(#amber9)">45+</text>
      <text y="60" font-size="22" font-weight="700" fill="#FFFFFF" opacity="0.7" letter-spacing="6">BUSINESSES LAUNCHED</text>
    </g>
  </g>

  <!-- 4 service blocks -->
  <g transform="translate(220, 2070)" font-family="Montserrat, Arial, sans-serif">
    <g>
      <rect width="500" height="500" rx="20" fill="#242426" stroke="#CA8114" stroke-width="1.5"/>
      <text x="250" y="120" text-anchor="middle" font-size="100" font-weight="800" fill="url(#amber9)">01</text>
      <text x="250" y="220" text-anchor="middle" font-size="32" font-weight="800" fill="#FFFFFF">BUSINESS SETUP</text>
      <line x1="200" y1="250" x2="300" y2="250" stroke="#CA8114" stroke-width="2"/>
      <g font-family="Inter, Arial, sans-serif" font-size="20" fill="#FFFFFF" opacity="0.65" text-anchor="middle">
        <text x="250" y="310">CIPC Registration</text>
        <text x="250" y="345">SARS &amp; Tax Clearance</text>
        <text x="250" y="380">B-BBEE Certification</text>
        <text x="250" y="415">CSD &amp; Bank Accounts</text>
      </g>
      <text x="250" y="465" text-anchor="middle" font-family="Inter, Arial, sans-serif" font-size="18" fill="#CA8114" font-weight="700">From R550</text>
    </g>
    <g transform="translate(540, 0)">
      <rect width="500" height="500" rx="20" fill="#242426" stroke="#CA8114" stroke-width="1.5"/>
      <text x="250" y="120" text-anchor="middle" font-size="100" font-weight="800" fill="url(#amber9)">02</text>
      <text x="250" y="220" text-anchor="middle" font-size="32" font-weight="800" fill="#FFFFFF">BRANDING</text>
      <line x1="200" y1="250" x2="300" y2="250" stroke="#CA8114" stroke-width="2"/>
      <g font-family="Inter, Arial, sans-serif" font-size="20" fill="#FFFFFF" opacity="0.65" text-anchor="middle">
        <text x="250" y="310">Logo &amp; Identity</text>
        <text x="250" y="345">Business Cards</text>
        <text x="250" y="380">Letterheads &amp; Flyers</text>
        <text x="250" y="415">Full Media Kits</text>
      </g>
      <text x="250" y="465" text-anchor="middle" font-family="Inter, Arial, sans-serif" font-size="18" fill="#CA8114" font-weight="700">From R1,500</text>
    </g>
    <g transform="translate(1080, 0)">
      <rect width="500" height="500" rx="20" fill="#242426" stroke="#CA8114" stroke-width="1.5"/>
      <text x="250" y="120" text-anchor="middle" font-size="100" font-weight="800" fill="url(#amber9)">03</text>
      <text x="250" y="220" text-anchor="middle" font-size="30" font-weight="800" fill="#FFFFFF">PLANS &amp; PROFILES</text>
      <line x1="200" y1="250" x2="300" y2="250" stroke="#CA8114" stroke-width="2"/>
      <g font-family="Inter, Arial, sans-serif" font-size="20" fill="#FFFFFF" opacity="0.65" text-anchor="middle">
        <text x="250" y="310">Business Plans</text>
        <text x="250" y="345">Company Profiles</text>
        <text x="250" y="380">Funding Proposals</text>
        <text x="250" y="415">Training Material</text>
      </g>
      <text x="250" y="465" text-anchor="middle" font-family="Inter, Arial, sans-serif" font-size="18" fill="#CA8114" font-weight="700">From R850</text>
    </g>
    <g transform="translate(1620, 0)">
      <rect width="500" height="500" rx="20" fill="url(#amber9)"/>
      <text x="250" y="120" text-anchor="middle" font-size="100" font-weight="800" fill="#1A1A1B">04</text>
      <text x="250" y="220" text-anchor="middle" font-size="32" font-weight="800" fill="#1A1A1B">DIGITAL</text>
      <line x1="200" y1="250" x2="300" y2="250" stroke="#1A1A1B" stroke-width="2"/>
      <g font-family="Inter, Arial, sans-serif" font-size="20" fill="#1A1A1B" opacity="0.85" text-anchor="middle">
        <text x="250" y="310">Websites &amp; Web Apps</text>
        <text x="250" y="345">Mobile Applications</text>
        <text x="250" y="380">E-Commerce Stores</text>
        <text x="250" y="415">AI &amp; Custom Platforms</text>
      </g>
      <text x="250" y="465" text-anchor="middle" font-family="Inter, Arial, sans-serif" font-size="18" fill="#1A1A1B" font-weight="800">From R5,000</text>
    </g>
  </g>

  <!-- CTA -->
  <g transform="translate(1240, 2820)">
    <rect x="-720" y="-100" width="1440" height="200" rx="100" fill="url(#amber9)"/>
    <text text-anchor="middle" y="40" font-family="Montserrat, Arial, sans-serif" font-size="76" font-weight="800" fill="#1A1A1B" letter-spacing="6">START YOUR PROJECT  →</text>
  </g>

  <!-- QR + Contact -->
  <g transform="translate(220, 3040)">
    <rect width="280" height="280" fill="#FFFFFF"/>
    <g fill="#1A1A1B">
      <rect x="20" y="20" width="60" height="60"/>
      <rect x="200" y="20" width="60" height="60"/>
      <rect x="20" y="200" width="60" height="60"/>
      <rect x="100" y="100" width="20" height="20"/>
      <rect x="140" y="100" width="20" height="20"/>
      <rect x="180" y="140" width="20" height="20"/>
      <rect x="100" y="180" width="40" height="20"/>
      <rect x="160" y="200" width="20" height="40"/>
      <rect x="220" y="180" width="20" height="20"/>
      <rect x="120" y="220" width="20" height="20"/>
    </g>
    <text x="140" y="320" text-anchor="middle" font-family="Inter, Arial, sans-serif" font-size="20" fill="#FFFFFF" opacity="0.7">Scan to start</text>
  </g>

  <g transform="translate(560, 3100)" font-family="Montserrat, Arial, sans-serif" fill="#FFFFFF">
    <text font-size="34" font-weight="800" fill="url(#amber9)" letter-spacing="3">www.thebreed.co.za</text>
    <text y="56" font-family="Inter, Arial, sans-serif" font-size="24" opacity="0.85">info@thebreed.co.za  ·  +27 60 496 4105</text>
    <text y="100" font-family="Inter, Arial, sans-serif" font-size="22" opacity="0.65">Instagram &amp; TikTok: @breedindustries</text>
    <text y="135" font-family="Inter, Arial, sans-serif" font-size="22" opacity="0.65">Facebook: BREEDinc  ·  LinkedIn: Breed Industries</text>
    <text y="190" font-family="Inter, Arial, sans-serif" font-size="20" opacity="0.5">Trusted by GoBizz · I-Group · MC Ways · NSPIRAXION · Lance · Gadali · MLK Apparel</text>
  </g>
</svg>
